<?xml version="1.0" encoding="UTF-8"?>
<svg xmlns="http://www.w3.org/2000/svg" version="1.1" width="200" height="200" viewBox="0 0 200 200"><rect x="0" y="0" width="200" height="200" fill="#ffffff"/><g transform="scale(6.897)"><g transform="translate(0,0)"><path fill-rule="evenodd" d="M9 0L9 1L8 1L8 2L9 2L9 3L8 3L8 4L9 4L9 5L8 5L8 7L9 7L9 8L6 8L6 9L5 9L5 8L0 8L0 9L1 9L1 10L0 10L0 12L1 12L1 13L0 13L0 16L1 16L1 17L0 17L0 21L1 21L1 18L2 18L2 21L4 21L4 20L5 20L5 21L7 21L7 20L8 20L8 19L7 19L7 18L8 18L8 16L6 16L6 17L5 17L5 15L4 15L4 14L5 14L5 13L7 13L7 12L6 12L6 11L8 11L8 12L9 12L9 14L10 14L10 15L11 15L11 16L12 16L12 17L10 17L10 20L9 20L9 21L8 21L8 23L9 23L9 24L8 24L8 29L9 29L9 28L10 28L10 29L11 29L11 28L12 28L12 29L14 29L14 28L15 28L15 27L16 27L16 26L21 26L21 28L22 28L22 29L23 29L23 28L22 28L22 25L24 25L24 26L25 26L25 27L26 27L26 28L27 28L27 27L28 27L28 28L29 28L29 27L28 27L28 26L27 26L27 25L29 25L29 23L27 23L27 25L26 25L26 23L25 23L25 21L26 21L26 22L28 22L28 20L29 20L29 19L28 19L28 18L29 18L29 16L28 16L28 17L25 17L25 16L26 16L26 15L25 15L25 13L26 13L26 14L27 14L27 15L29 15L29 14L28 14L28 13L29 13L29 11L26 11L26 10L27 10L27 9L28 9L28 10L29 10L29 9L28 9L28 8L27 8L27 9L26 9L26 8L25 8L25 10L22 10L22 8L20 8L20 7L21 7L21 6L20 6L20 7L19 7L19 6L18 6L18 7L17 7L17 5L18 5L18 4L20 4L20 3L21 3L21 1L19 1L19 0L17 0L17 2L20 2L20 3L18 3L18 4L17 4L17 3L16 3L16 2L15 2L15 1L14 1L14 0L12 0L12 1L14 1L14 2L9 2L9 1L10 1L10 0ZM10 3L10 4L11 4L11 5L10 5L10 6L9 6L9 7L10 7L10 9L9 9L9 10L8 10L8 9L6 9L6 10L5 10L5 11L4 11L4 9L3 9L3 11L4 11L4 12L5 12L5 11L6 11L6 10L8 10L8 11L9 11L9 12L11 12L11 13L10 13L10 14L11 14L11 15L13 15L13 16L15 16L15 17L18 17L18 18L16 18L16 20L11 20L11 21L10 21L10 22L9 22L9 23L13 23L13 26L14 26L14 27L15 27L15 26L16 26L16 24L15 24L15 23L16 23L16 22L19 22L19 25L20 25L20 20L21 20L21 19L20 19L20 18L21 18L21 16L22 16L22 15L23 15L23 16L25 16L25 15L24 15L24 14L22 14L22 15L21 15L21 12L22 12L22 11L21 11L21 10L20 10L20 8L19 8L19 7L18 7L18 8L17 8L17 9L18 9L18 10L16 10L16 11L15 11L15 12L13 12L13 13L14 13L14 15L13 15L13 14L12 14L12 12L11 12L11 11L14 11L14 10L13 10L13 9L14 9L14 6L15 6L15 7L16 7L16 5L17 5L17 4L16 4L16 3ZM13 4L13 6L12 6L12 7L11 7L11 6L10 6L10 7L11 7L11 8L12 8L12 9L13 9L13 6L14 6L14 4ZM15 4L15 5L16 5L16 4ZM15 8L15 9L16 9L16 8ZM18 8L18 9L19 9L19 8ZM23 8L23 9L24 9L24 8ZM10 10L10 11L11 11L11 10ZM18 10L18 12L17 12L17 14L16 14L16 13L15 13L15 14L16 14L16 15L15 15L15 16L18 16L18 17L19 17L19 16L20 16L20 15L19 15L19 16L18 16L18 15L17 15L17 14L19 14L19 12L20 12L20 10ZM1 11L1 12L2 12L2 11ZM24 11L24 12L23 12L23 13L24 13L24 12L26 12L26 13L27 13L27 12L26 12L26 11ZM2 13L2 14L4 14L4 13ZM6 14L6 15L8 15L8 14ZM1 15L1 16L2 16L2 15ZM3 15L3 16L4 16L4 15ZM6 17L6 18L3 18L3 19L6 19L6 20L7 20L7 19L6 19L6 18L7 18L7 17ZM23 17L23 18L22 18L22 19L23 19L23 18L25 18L25 17ZM11 18L11 19L14 19L14 18ZM18 18L18 20L20 20L20 19L19 19L19 18ZM26 18L26 19L24 19L24 20L26 20L26 21L27 21L27 20L28 20L28 19L27 19L27 18ZM26 19L26 20L27 20L27 19ZM16 20L16 21L12 21L12 22L16 22L16 21L17 21L17 20ZM21 21L21 24L24 24L24 21ZM22 22L22 23L23 23L23 22ZM17 23L17 25L18 25L18 23ZM9 24L9 26L10 26L10 27L12 27L12 24ZM14 24L14 25L15 25L15 24ZM26 26L26 27L27 27L27 26ZM17 27L17 28L18 28L18 29L20 29L20 27L19 27L19 28L18 28L18 27ZM0 0L0 7L7 7L7 0ZM1 1L1 6L6 6L6 1ZM2 2L2 5L5 5L5 2ZM22 0L22 7L29 7L29 0ZM23 1L23 6L28 6L28 1ZM24 2L24 5L27 5L27 2ZM0 22L0 29L7 29L7 22ZM1 23L1 28L6 28L6 23ZM2 24L2 27L5 27L5 24Z" fill="#000000"/></g></g></svg>
