<?xml version="1.0" encoding="UTF-8"?>
<svg xmlns="http://www.w3.org/2000/svg" version="1.1" width="200" height="200" viewBox="0 0 200 200"><rect x="0" y="0" width="200" height="200" fill="#ffffff"/><g transform="scale(6.061)"><g transform="translate(0,0)"><path fill-rule="evenodd" d="M9 0L9 1L8 1L8 2L9 2L9 3L8 3L8 4L10 4L10 7L11 7L11 4L12 4L12 5L13 5L13 6L12 6L12 9L13 9L13 8L14 8L14 9L16 9L16 8L14 8L14 7L15 7L15 5L14 5L14 4L12 4L12 2L13 2L13 1L11 1L11 2L10 2L10 0ZM14 0L14 1L15 1L15 2L16 2L16 1L17 1L17 2L18 2L18 3L17 3L17 4L16 4L16 3L15 3L15 4L16 4L16 5L18 5L18 3L19 3L19 4L20 4L20 7L19 7L19 6L18 6L18 7L17 7L17 6L16 6L16 7L17 7L17 8L18 8L18 9L17 9L17 10L15 10L15 11L14 11L14 12L15 12L15 13L12 13L12 11L13 11L13 10L11 10L11 11L10 11L10 9L11 9L11 8L6 8L6 9L5 9L5 8L0 8L0 9L2 9L2 10L1 10L1 11L0 11L0 13L1 13L1 12L3 12L3 11L5 11L5 12L6 12L6 13L4 13L4 14L3 14L3 13L2 13L2 14L1 14L1 15L0 15L0 18L1 18L1 19L0 19L0 25L1 25L1 22L2 22L2 24L3 24L3 25L8 25L8 27L9 27L9 28L8 28L8 33L11 33L11 32L9 32L9 31L10 31L10 30L9 30L9 29L12 29L12 30L13 30L13 31L12 31L12 33L13 33L13 32L14 32L14 33L17 33L17 32L14 32L14 31L19 31L19 29L20 29L20 30L21 30L21 31L22 31L22 32L18 32L18 33L22 33L22 32L23 32L23 29L25 29L25 30L24 30L24 33L32 33L32 32L33 32L33 31L31 31L31 30L32 30L32 29L33 29L33 27L32 27L32 26L31 26L31 27L32 27L32 29L31 29L31 28L30 28L30 29L29 29L29 23L31 23L31 24L30 24L30 25L31 25L31 24L33 24L33 20L32 20L32 19L33 19L33 18L32 18L32 19L31 19L31 18L30 18L30 19L29 19L29 17L31 17L31 16L28 16L28 15L32 15L32 17L33 17L33 15L32 15L32 14L33 14L33 12L32 12L32 11L33 11L33 10L32 10L32 8L31 8L31 10L30 10L30 11L29 11L29 10L28 10L28 8L27 8L27 11L26 11L26 12L25 12L25 9L26 9L26 8L23 8L23 9L24 9L24 11L23 11L23 10L18 10L18 9L20 9L20 7L21 7L21 8L22 8L22 7L23 7L23 6L24 6L24 7L25 7L25 6L24 6L24 5L25 5L25 2L23 2L23 0L22 0L22 1L19 1L19 0L16 0L16 1L15 1L15 0ZM24 0L24 1L25 1L25 0ZM19 2L19 3L20 3L20 2ZM21 2L21 3L22 3L22 4L21 4L21 5L22 5L22 6L21 6L21 7L22 7L22 6L23 6L23 5L24 5L24 4L23 4L23 3L22 3L22 2ZM10 3L10 4L11 4L11 3ZM22 4L22 5L23 5L23 4ZM8 5L8 7L9 7L9 5ZM13 6L13 7L14 7L14 6ZM18 7L18 8L19 8L19 7ZM29 8L29 9L30 9L30 8ZM4 9L4 10L5 10L5 9ZM6 9L6 10L7 10L7 11L6 11L6 12L7 12L7 13L6 13L6 14L7 14L7 13L9 13L9 14L10 14L10 15L6 15L6 16L7 16L7 17L6 17L6 18L5 18L5 15L3 15L3 14L2 14L2 15L3 15L3 16L4 16L4 17L2 17L2 16L1 16L1 17L2 17L2 20L1 20L1 21L2 21L2 22L3 22L3 23L4 23L4 24L7 24L7 23L6 23L6 22L8 22L8 23L10 23L10 24L9 24L9 25L10 25L10 24L11 24L11 26L13 26L13 27L12 27L12 29L15 29L15 30L18 30L18 29L19 29L19 28L20 28L20 29L21 29L21 30L22 30L22 28L23 28L23 26L24 26L24 24L22 24L22 23L21 23L21 22L23 22L23 23L24 23L24 22L25 22L25 23L27 23L27 24L28 24L28 23L29 23L29 22L27 22L27 20L26 20L26 21L25 21L25 20L23 20L23 19L24 19L24 16L23 16L23 14L25 14L25 16L26 16L26 15L28 15L28 14L25 14L25 12L22 12L22 11L21 11L21 12L20 12L20 11L19 11L19 12L18 12L18 10L17 10L17 11L15 11L15 12L16 12L16 14L18 14L18 13L19 13L19 12L20 12L20 15L18 15L18 16L21 16L21 14L22 14L22 16L23 16L23 18L21 18L21 17L19 17L19 18L21 18L21 19L22 19L22 21L21 21L21 22L20 22L20 21L19 21L19 23L20 23L20 25L19 25L19 24L18 24L18 23L14 23L14 24L13 24L13 25L12 25L12 23L13 23L13 22L12 22L12 21L15 21L15 20L16 20L16 21L17 21L17 22L18 22L18 19L15 19L15 17L14 17L14 16L17 16L17 15L14 15L14 16L13 16L13 17L12 17L12 15L13 15L13 14L12 14L12 13L11 13L11 12L10 12L10 13L9 13L9 12L7 12L7 11L8 11L8 10L7 10L7 9ZM31 10L31 11L32 11L32 10ZM28 11L28 12L29 12L29 13L30 13L30 14L31 14L31 13L30 13L30 12L29 12L29 11ZM21 12L21 13L22 13L22 14L23 14L23 13L22 13L22 12ZM26 12L26 13L27 13L27 12ZM10 13L10 14L11 14L11 13ZM8 16L8 18L9 18L9 19L7 19L7 18L6 18L6 19L4 19L4 18L3 18L3 20L2 20L2 21L4 21L4 20L6 20L6 21L7 21L7 20L8 20L8 22L9 22L9 21L10 21L10 22L11 22L11 21L12 21L12 19L13 19L13 18L11 18L11 17L10 17L10 18L9 18L9 16ZM17 17L17 18L18 18L18 17ZM25 17L25 19L28 19L28 18L26 18L26 17ZM6 19L6 20L7 20L7 19ZM9 19L9 20L10 20L10 21L11 21L11 20L10 20L10 19ZM14 19L14 20L15 20L15 19ZM19 19L19 20L20 20L20 19ZM28 20L28 21L29 21L29 20ZM23 21L23 22L24 22L24 21ZM30 21L30 22L31 22L31 23L32 23L32 21ZM14 24L14 25L15 25L15 27L14 27L14 28L15 28L15 29L16 29L16 28L15 28L15 27L17 27L17 29L18 29L18 28L19 28L19 27L20 27L20 28L22 28L22 27L21 27L21 26L16 26L16 24ZM17 24L17 25L18 25L18 24ZM21 24L21 25L22 25L22 24ZM25 25L25 28L28 28L28 25ZM26 26L26 27L27 27L27 26ZM10 27L10 28L11 28L11 27ZM26 29L26 31L25 31L25 32L27 32L27 31L28 31L28 32L31 32L31 31L29 31L29 29L28 29L28 30L27 30L27 29ZM30 29L30 30L31 30L31 29ZM0 0L0 7L7 7L7 0ZM1 1L1 6L6 6L6 1ZM2 2L2 5L5 5L5 2ZM26 0L26 7L33 7L33 0ZM27 1L27 6L32 6L32 1ZM28 2L28 5L31 5L31 2ZM0 26L0 33L7 33L7 26ZM1 27L1 32L6 32L6 27ZM2 28L2 31L5 31L5 28Z" fill="#000000"/></g></g></svg>
