<?xml version="1.0" encoding="UTF-8"?>
<svg xmlns="http://www.w3.org/2000/svg" version="1.1" width="200" height="200" viewBox="0 0 200 200"><rect x="0" y="0" width="200" height="200" fill="#ffffff"/><g transform="scale(6.897)"><g transform="translate(0,0)"><path fill-rule="evenodd" d="M8 0L8 1L9 1L9 5L10 5L10 7L11 7L11 8L9 8L9 6L8 6L8 8L9 8L9 9L8 9L8 10L10 10L10 11L9 11L9 12L8 12L8 11L7 11L7 10L4 10L4 9L5 9L5 8L3 8L3 9L2 9L2 8L0 8L0 12L1 12L1 13L0 13L0 14L1 14L1 13L2 13L2 12L3 12L3 14L2 14L2 15L3 15L3 14L5 14L5 13L7 13L7 14L6 14L6 15L5 15L5 16L3 16L3 17L2 17L2 18L1 18L1 16L0 16L0 21L3 21L3 20L4 20L4 21L8 21L8 22L9 22L9 21L10 21L10 22L11 22L11 23L12 23L12 24L10 24L10 25L9 25L9 24L8 24L8 26L10 26L10 27L11 27L11 29L15 29L15 28L17 28L17 29L21 29L21 27L22 27L22 29L24 29L24 28L23 28L23 26L21 26L21 27L20 27L20 26L19 26L19 25L24 25L24 26L25 26L25 24L26 24L26 25L27 25L27 28L26 28L26 29L27 29L27 28L28 28L28 27L29 27L29 26L28 26L28 24L26 24L26 23L27 23L27 22L26 22L26 23L25 23L25 20L26 20L26 19L27 19L27 21L28 21L28 22L29 22L29 18L27 18L27 16L28 16L28 17L29 17L29 15L28 15L28 14L27 14L27 15L26 15L26 13L28 13L28 12L27 12L27 10L28 10L28 9L29 9L29 8L28 8L28 9L27 9L27 10L26 10L26 9L25 9L25 10L24 10L24 11L26 11L26 13L25 13L25 12L23 12L23 13L22 13L22 11L23 11L23 8L22 8L22 10L18 10L18 9L21 9L21 6L20 6L20 8L18 8L18 7L19 7L19 6L18 6L18 5L17 5L17 6L16 6L16 3L17 3L17 2L19 2L19 3L18 3L18 4L20 4L20 5L21 5L21 2L19 2L19 1L21 1L21 0L18 0L18 1L17 1L17 0L16 0L16 1L15 1L15 0L14 0L14 1L13 1L13 0ZM10 1L10 3L11 3L11 4L10 4L10 5L11 5L11 4L12 4L12 6L11 6L11 7L12 7L12 6L13 6L13 7L14 7L14 8L15 8L15 9L14 9L14 10L13 10L13 9L12 9L12 8L11 8L11 10L12 10L12 11L11 11L11 12L10 12L10 14L9 14L9 13L8 13L8 12L7 12L7 11L6 11L6 12L7 12L7 13L8 13L8 14L7 14L7 15L6 15L6 16L8 16L8 17L10 17L10 18L9 18L9 19L10 19L10 18L12 18L12 19L13 19L13 20L11 20L11 22L12 22L12 23L13 23L13 24L14 24L14 25L17 25L17 23L18 23L18 22L19 22L19 23L20 23L20 22L19 22L19 20L20 20L20 19L21 19L21 20L22 20L22 19L21 19L21 18L23 18L23 19L24 19L24 20L25 20L25 19L26 19L26 18L25 18L25 17L26 17L26 16L25 16L25 15L24 15L24 14L23 14L23 15L22 15L22 16L23 16L23 17L20 17L20 16L19 16L19 14L17 14L17 13L18 13L18 12L17 12L17 13L16 13L16 12L15 12L15 14L14 14L14 13L13 13L13 14L12 14L12 13L11 13L11 12L12 12L12 11L15 11L15 10L16 10L16 11L17 11L17 9L18 9L18 8L16 8L16 6L15 6L15 5L14 5L14 6L13 6L13 4L14 4L14 2L15 2L15 1L14 1L14 2L13 2L13 1ZM16 1L16 2L17 2L17 1ZM11 2L11 3L13 3L13 2ZM14 6L14 7L15 7L15 6ZM17 6L17 7L18 7L18 6ZM6 8L6 9L7 9L7 8ZM1 9L1 10L2 10L2 11L1 11L1 12L2 12L2 11L4 11L4 12L5 12L5 11L4 11L4 10L2 10L2 9ZM20 11L20 12L21 12L21 11ZM21 13L21 14L20 14L20 15L21 15L21 14L22 14L22 13ZM8 14L8 16L9 16L9 14ZM10 15L10 17L12 17L12 18L13 18L13 19L14 19L14 18L15 18L15 19L18 19L18 20L19 20L19 19L20 19L20 18L15 18L15 17L14 17L14 16L15 16L15 15L14 15L14 16L13 16L13 15ZM17 15L17 17L19 17L19 16L18 16L18 15ZM24 16L24 17L23 17L23 18L24 18L24 19L25 19L25 18L24 18L24 17L25 17L25 16ZM3 17L3 19L2 19L2 20L3 20L3 19L4 19L4 20L8 20L8 21L9 21L9 20L8 20L8 19L6 19L6 18L7 18L7 17L5 17L5 19L4 19L4 17ZM13 20L13 21L12 21L12 22L14 22L14 23L15 23L15 22L14 22L14 20ZM16 21L16 23L17 23L17 21ZM21 21L21 24L24 24L24 21ZM22 22L22 23L23 23L23 22ZM10 25L10 26L11 26L11 27L12 27L12 25ZM13 26L13 27L14 27L14 28L15 28L15 26ZM17 26L17 27L18 27L18 28L20 28L20 27L19 27L19 26ZM8 27L8 29L10 29L10 28L9 28L9 27ZM0 0L0 7L7 7L7 0ZM1 1L1 6L6 6L6 1ZM2 2L2 5L5 5L5 2ZM22 0L22 7L29 7L29 0ZM23 1L23 6L28 6L28 1ZM24 2L24 5L27 5L27 2ZM0 22L0 29L7 29L7 22ZM1 23L1 28L6 28L6 23ZM2 24L2 27L5 27L5 24Z" fill="#000000"/></g></g></svg>
