<?xml version="1.0" encoding="UTF-8"?>
<svg xmlns="http://www.w3.org/2000/svg" version="1.1" width="200" height="200" viewBox="0 0 200 200"><rect x="0" y="0" width="200" height="200" fill="#ffffff"/><g transform="scale(6.897)"><g transform="translate(0,0)"><path fill-rule="evenodd" d="M9 0L9 1L8 1L8 2L9 2L9 3L8 3L8 4L9 4L9 5L8 5L8 7L9 7L9 8L6 8L6 9L5 9L5 8L0 8L0 9L1 9L1 10L0 10L0 11L2 11L2 10L3 10L3 11L4 11L4 10L6 10L6 11L7 11L7 10L8 10L8 12L9 12L9 13L10 13L10 10L11 10L11 8L12 8L12 10L13 10L13 11L11 11L11 12L12 12L12 13L11 13L11 14L14 14L14 15L10 15L10 14L8 14L8 15L7 15L7 14L6 14L6 13L7 13L7 12L5 12L5 15L7 15L7 16L5 16L5 18L4 18L4 16L2 16L2 15L3 15L3 14L2 14L2 13L1 13L1 12L0 12L0 15L1 15L1 16L0 16L0 21L1 21L1 18L4 18L4 19L3 19L3 20L2 20L2 21L3 21L3 20L4 20L4 21L7 21L7 20L8 20L8 23L9 23L9 20L10 20L10 22L11 22L11 20L12 20L12 23L10 23L10 25L9 25L9 24L8 24L8 29L9 29L9 28L10 28L10 29L11 29L11 28L12 28L12 29L13 29L13 27L12 27L12 26L16 26L16 27L15 27L15 28L14 28L14 29L15 29L15 28L17 28L17 27L18 27L18 29L20 29L20 28L19 28L19 26L21 26L21 28L22 28L22 29L23 29L23 28L22 28L22 25L24 25L24 26L25 26L25 27L26 27L26 28L27 28L27 27L28 27L28 28L29 28L29 27L28 27L28 26L27 26L27 25L29 25L29 23L27 23L27 25L26 25L26 23L25 23L25 21L26 21L26 22L28 22L28 20L29 20L29 19L28 19L28 18L29 18L29 16L28 16L28 18L27 18L27 17L25 17L25 16L26 16L26 15L25 15L25 13L26 13L26 14L27 14L27 15L29 15L29 14L28 14L28 13L29 13L29 11L26 11L26 10L27 10L27 9L28 9L28 10L29 10L29 9L28 9L28 8L27 8L27 9L26 9L26 8L25 8L25 10L22 10L22 8L21 8L21 11L22 11L22 12L20 12L20 11L19 11L19 12L18 12L18 11L17 11L17 10L18 10L18 9L19 9L19 8L20 8L20 7L21 7L21 6L20 6L20 5L21 5L21 3L20 3L20 2L19 2L19 3L18 3L18 2L17 2L17 1L19 1L19 0L17 0L17 1L16 1L16 0L13 0L13 1L16 1L16 2L15 2L15 3L16 3L16 4L15 4L15 5L14 5L14 2L9 2L9 1L11 1L11 0ZM9 3L9 4L10 4L10 5L9 5L9 7L10 7L10 6L11 6L11 7L12 7L12 6L13 6L13 7L14 7L14 5L13 5L13 4L12 4L12 3L11 3L11 4L10 4L10 3ZM17 3L17 4L18 4L18 3ZM19 3L19 5L20 5L20 3ZM16 5L16 6L15 6L15 8L13 8L13 9L14 9L14 11L13 11L13 13L14 13L14 11L16 11L16 10L17 10L17 9L18 9L18 8L19 8L19 7L20 7L20 6L19 6L19 7L18 7L18 6L17 6L17 5ZM16 6L16 7L17 7L17 6ZM9 8L9 9L10 9L10 8ZM23 8L23 9L24 9L24 8ZM3 9L3 10L4 10L4 9ZM6 9L6 10L7 10L7 9ZM15 9L15 10L16 10L16 9ZM24 11L24 12L23 12L23 13L24 13L24 12L26 12L26 13L27 13L27 12L26 12L26 11ZM15 12L15 13L18 13L18 14L16 14L16 16L10 16L10 15L8 15L8 17L9 17L9 16L10 16L10 17L11 17L11 19L10 19L10 20L11 20L11 19L13 19L13 20L15 20L15 22L16 22L16 23L15 23L15 24L13 24L13 25L16 25L16 26L19 26L19 24L20 24L20 22L19 22L19 21L20 21L20 20L21 20L21 19L20 19L20 20L19 20L19 18L21 18L21 17L20 17L20 16L22 16L22 15L23 15L23 16L25 16L25 15L24 15L24 14L22 14L22 15L20 15L20 12L19 12L19 13L18 13L18 12ZM18 14L18 16L16 16L16 17L15 17L15 18L16 18L16 19L15 19L15 20L16 20L16 22L18 22L18 24L19 24L19 22L18 22L18 21L19 21L19 20L18 20L18 19L17 19L17 18L19 18L19 16L20 16L20 15L19 15L19 14ZM6 17L6 18L7 18L7 19L5 19L5 20L7 20L7 19L8 19L8 18L7 18L7 17ZM12 17L12 18L13 18L13 19L14 19L14 17ZM16 17L16 18L17 18L17 17ZM23 17L23 18L22 18L22 19L23 19L23 18L25 18L25 17ZM26 18L26 19L24 19L24 20L26 20L26 21L27 21L27 20L28 20L28 19L27 19L27 18ZM26 19L26 20L27 20L27 19ZM17 20L17 21L18 21L18 20ZM21 21L21 24L24 24L24 21ZM13 22L13 23L14 23L14 22ZM22 22L22 23L23 23L23 22ZM11 24L11 25L10 25L10 28L11 28L11 25L12 25L12 24ZM26 26L26 27L27 27L27 26ZM0 0L0 7L7 7L7 0ZM1 1L1 6L6 6L6 1ZM2 2L2 5L5 5L5 2ZM22 0L22 7L29 7L29 0ZM23 1L23 6L28 6L28 1ZM24 2L24 5L27 5L27 2ZM0 22L0 29L7 29L7 22ZM1 23L1 28L6 28L6 23ZM2 24L2 27L5 27L5 24Z" fill="#000000"/></g></g></svg>
